<svg width="128" height="18" viewBox="0 0 128 18" fill="none" xmlns="http://www.w3.org/2000/svg">
<path d="M5.0964 14H0.455777V0.909091H5.13475C6.45152 0.909091 7.58504 1.17116 8.53532 1.69531C9.48561 2.2152 10.2164 2.96307 10.7278 3.93892C11.2434 4.91477 11.5012 6.08239 11.5012 7.44176C11.5012 8.8054 11.2434 9.97727 10.7278 10.9574C10.2164 11.9375 9.48135 12.6896 8.52254 13.2138C7.56799 13.7379 6.42595 14 5.0964 14ZM3.22353 11.6286H4.98135C5.79953 11.6286 6.48774 11.4837 7.04598 11.1939C7.60848 10.8999 8.03035 10.446 8.3116 9.83239C8.59711 9.21449 8.73987 8.41761 8.73987 7.44176C8.73987 6.47443 8.59711 5.68395 8.3116 5.07031C8.03035 4.45668 7.61061 4.00497 7.05237 3.7152C6.49413 3.42543 5.80592 3.28054 4.98774 3.28054H3.22353V11.6286ZM13.5003 14V4.18182H16.2234V14H13.5003ZM14.8682 2.91619C14.4634 2.91619 14.1161 2.78196 13.8263 2.51349C13.5408 2.24077 13.3981 1.91477 13.3981 1.53551C13.3981 1.16051 13.5408 0.838778 13.8263 0.570312C14.1161 0.297585 14.4634 0.161221 14.8682 0.161221C15.2731 0.161221 15.6182 0.297585 15.9038 0.570312C16.1935 0.838778 16.3384 1.16051 16.3384 1.53551C16.3384 1.91477 16.1935 2.24077 15.9038 2.51349C15.6182 2.78196 15.2731 2.91619 14.8682 2.91619ZM22.8279 17.8864C21.9458 17.8864 21.1894 17.7649 20.5588 17.522C19.9323 17.2834 19.4338 16.9574 19.063 16.544C18.6923 16.1307 18.4515 15.6662 18.3407 15.1506L20.8592 14.8118C20.9359 15.0078 21.0573 15.1911 21.2235 15.3615C21.3897 15.532 21.6092 15.6683 21.8819 15.7706C22.1589 15.8771 22.4956 15.9304 22.8919 15.9304C23.4842 15.9304 23.9721 15.7855 24.3556 15.4957C24.7434 15.2102 24.9373 14.7308 24.9373 14.0575V12.2614H24.8223C24.7029 12.5341 24.524 12.7919 24.2853 13.0348C24.0467 13.2777 23.7399 13.4759 23.3649 13.6293C22.9899 13.7827 22.5424 13.8594 22.0225 13.8594C21.2853 13.8594 20.6142 13.6889 20.009 13.348C19.4082 13.0028 18.9288 12.4766 18.5708 11.7692C18.2171 11.0575 18.0403 10.1584 18.0403 9.07173C18.0403 7.95952 18.2214 7.03054 18.5836 6.2848C18.9458 5.53906 19.4274 4.98082 20.0282 4.61009C20.6333 4.23935 21.296 4.05398 22.0161 4.05398C22.5659 4.05398 23.0261 4.14773 23.3968 4.33523C23.7676 4.51847 24.0659 4.74858 24.2917 5.02557C24.5218 5.2983 24.6987 5.56676 24.8223 5.83097H24.9245V4.18182H27.6284V14.0959C27.6284 14.9311 27.4238 15.63 27.0147 16.1925C26.6056 16.755 26.0389 17.1768 25.3144 17.4581C24.5943 17.7436 23.7654 17.8864 22.8279 17.8864ZM22.8855 11.8139C23.3244 11.8139 23.6951 11.7053 23.9977 11.4879C24.3045 11.2663 24.5389 10.951 24.7008 10.5419C24.867 10.1286 24.9501 9.63423 24.9501 9.05895C24.9501 8.48366 24.8691 7.98509 24.7072 7.56321C24.5453 7.13707 24.3109 6.80682 24.0041 6.57244C23.6973 6.33807 23.3244 6.22088 22.8855 6.22088C22.438 6.22088 22.0609 6.34233 21.7541 6.58523C21.4473 6.82386 21.215 7.15625 21.0573 7.58239C20.8997 8.00852 20.8208 8.50071 20.8208 9.05895C20.8208 9.62571 20.8997 10.1158 21.0573 10.5291C21.2193 10.9382 21.4515 11.2557 21.7541 11.4815C22.0609 11.7031 22.438 11.8139 22.8855 11.8139ZM29.7953 14V4.18182H32.5183V14H29.7953ZM31.1632 2.91619C30.7583 2.91619 30.411 2.78196 30.1213 2.51349C29.8357 2.24077 29.693 1.91477 29.693 1.53551C29.693 1.16051 29.8357 0.838778 30.1213 0.570312C30.411 0.297585 30.7583 0.161221 31.1632 0.161221C31.568 0.161221 31.9132 0.297585 32.1987 0.570312C32.4884 0.838778 32.6333 1.16051 32.6333 1.53551C32.6333 1.91477 32.4884 2.24077 32.1987 2.51349C31.9132 2.78196 31.568 2.91619 31.1632 2.91619ZM39.9219 4.18182V6.22727H34.0092V4.18182H39.9219ZM35.3516 1.82955H38.0746V10.983C38.0746 11.2344 38.1129 11.4304 38.1896 11.571C38.2663 11.7074 38.3729 11.8033 38.5092 11.8587C38.6498 11.9141 38.8118 11.9418 38.995 11.9418C39.1229 11.9418 39.2507 11.9311 39.3785 11.9098C39.5064 11.8842 39.6044 11.8651 39.6726 11.8523L40.1008 13.8786C39.9645 13.9212 39.7727 13.9702 39.5256 14.0256C39.2784 14.0852 38.978 14.1214 38.6243 14.1342C37.968 14.1598 37.3927 14.0724 36.8984 13.8722C36.4084 13.6719 36.027 13.3608 35.7543 12.9389C35.4815 12.517 35.3473 11.9844 35.3516 11.3409V1.82955ZM44.4954 14.1854C43.869 14.1854 43.3107 14.0767 42.8207 13.8594C42.3306 13.6378 41.9428 13.3118 41.6573 12.8814C41.3761 12.4467 41.2354 11.9055 41.2354 11.2578C41.2354 10.7124 41.3356 10.2543 41.5359 9.88352C41.7361 9.51278 42.0089 9.21449 42.354 8.98864C42.6992 8.76278 43.0913 8.59233 43.5302 8.47727C43.9734 8.36222 44.4378 8.28125 44.9236 8.23438C45.4947 8.17472 45.9549 8.11932 46.3043 8.06818C46.6538 8.01278 46.9073 7.93182 47.065 7.82528C47.2226 7.71875 47.3015 7.56108 47.3015 7.35227V7.31392C47.3015 6.90909 47.1736 6.59588 46.918 6.37429C46.6665 6.1527 46.3086 6.0419 45.8441 6.0419C45.354 6.0419 44.9641 6.15057 44.6743 6.3679C44.3846 6.58097 44.1928 6.84943 44.0991 7.1733L41.5806 6.96875C41.7084 6.37216 41.9599 5.85653 42.3349 5.42188C42.7099 4.98295 43.1935 4.64631 43.7859 4.41193C44.3824 4.1733 45.0728 4.05398 45.8569 4.05398C46.4023 4.05398 46.9243 4.1179 47.4229 4.24574C47.9258 4.37358 48.3711 4.57173 48.7589 4.8402C49.1509 5.10866 49.4599 5.45384 49.6857 5.87571C49.9116 6.29332 50.0245 6.79403 50.0245 7.37784V14H47.4421V12.6385H47.3654C47.2077 12.9453 46.9968 13.2159 46.7326 13.4503C46.4684 13.6804 46.1509 13.8615 45.7802 13.9936C45.4094 14.1214 44.9812 14.1854 44.4954 14.1854ZM45.2752 12.3061C45.6758 12.3061 46.0295 12.2273 46.3363 12.0696C46.6431 11.9077 46.8839 11.6903 47.0586 11.4176C47.2333 11.1449 47.3207 10.8359 47.3207 10.4908V9.44886C47.2354 9.50426 47.1182 9.5554 46.9691 9.60227C46.8242 9.64489 46.6601 9.68537 46.4769 9.72372C46.2937 9.75781 46.1104 9.78977 45.9272 9.8196C45.744 9.84517 45.5778 9.86861 45.4286 9.88991C45.109 9.93679 44.8299 10.0114 44.5913 10.1136C44.3526 10.2159 44.1672 10.3544 44.0351 10.5291C43.903 10.6996 43.837 10.9126 43.837 11.1683C43.837 11.5391 43.9712 11.8224 44.2397 12.0185C44.5124 12.2102 44.8576 12.3061 45.2752 12.3061ZM54.8601 0.909091V14H52.1371V0.909091H54.8601ZM63.5149 14H60.549L65.0682 0.909091H68.6349L73.1477 14H70.1818L66.9027 3.90057H66.8004L63.5149 14ZM63.3295 8.8544H70.3352V11.0149H63.3295V8.8544ZM78.6385 17.8864C77.7564 17.8864 77 17.7649 76.3693 17.522C75.7429 17.2834 75.2443 16.9574 74.8736 16.544C74.5028 16.1307 74.2621 15.6662 74.1513 15.1506L76.6697 14.8118C76.7464 15.0078 76.8679 15.1911 77.0341 15.3615C77.2003 15.532 77.4197 15.6683 77.6925 15.7706C77.9694 15.8771 78.3061 15.9304 78.7024 15.9304C79.2947 15.9304 79.7827 15.7855 80.1662 15.4957C80.554 15.2102 80.7479 14.7308 80.7479 14.0575V12.2614H80.6328C80.5135 12.5341 80.3345 12.7919 80.0959 13.0348C79.8572 13.2777 79.5504 13.4759 79.1754 13.6293C78.8004 13.7827 78.353 13.8594 77.8331 13.8594C77.0959 13.8594 76.4247 13.6889 75.8196 13.348C75.2187 13.0028 74.7393 12.4766 74.3814 11.7692C74.0277 11.0575 73.8508 10.1584 73.8508 9.07173C73.8508 7.95952 74.0319 7.03054 74.3942 6.2848C74.7564 5.53906 75.2379 4.98082 75.8388 4.61009C76.4439 4.23935 77.1065 4.05398 77.8267 4.05398C78.3764 4.05398 78.8366 4.14773 79.2074 4.33523C79.5781 4.51847 79.8764 4.74858 80.1023 5.02557C80.3324 5.2983 80.5092 5.56676 80.6328 5.83097H80.7351V4.18182H83.4389V14.0959C83.4389 14.9311 83.2344 15.63 82.8253 16.1925C82.4162 16.755 81.8494 17.1768 81.125 17.4581C80.4048 17.7436 79.576 17.8864 78.6385 17.8864ZM78.696 11.8139C79.1349 11.8139 79.5057 11.7053 79.8082 11.4879C80.115 11.2663 80.3494 10.951 80.5114 10.5419C80.6775 10.1286 80.7606 9.63423 80.7606 9.05895C80.7606 8.48366 80.6797 7.98509 80.5177 7.56321C80.3558 7.13707 80.1214 6.80682 79.8146 6.57244C79.5078 6.33807 79.1349 6.22088 78.696 6.22088C78.2486 6.22088 77.8714 6.34233 77.5646 6.58523C77.2578 6.82386 77.0256 7.15625 76.8679 7.58239C76.7102 8.00852 76.6314 8.50071 76.6314 9.05895C76.6314 9.62571 76.7102 10.1158 76.8679 10.5291C77.0298 10.9382 77.2621 11.2557 77.5646 11.4815C77.8714 11.7031 78.2486 11.8139 78.696 11.8139ZM90.0802 14.1918C89.0703 14.1918 88.201 13.9872 87.4723 13.5781C86.7479 13.1648 86.1896 12.581 85.7976 11.8267C85.4055 11.0682 85.2095 10.1712 85.2095 9.13565C85.2095 8.12571 85.4055 7.23935 85.7976 6.47656C86.1896 5.71378 86.7415 5.11932 87.4531 4.69318C88.169 4.26705 89.0085 4.05398 89.9716 4.05398C90.6193 4.05398 91.2223 4.15838 91.7805 4.36719C92.343 4.57173 92.8331 4.88068 93.2507 5.29403C93.6726 5.70739 94.0007 6.22727 94.2351 6.85369C94.4694 7.47585 94.5866 8.20455 94.5866 9.03977V9.78764H86.2962V8.10014H92.0234C92.0234 7.7081 91.9382 7.3608 91.7677 7.05824C91.5973 6.75568 91.3608 6.51918 91.0582 6.34872C90.7599 6.17401 90.4126 6.08665 90.0163 6.08665C89.603 6.08665 89.2365 6.18253 88.9169 6.37429C88.6016 6.56179 88.3544 6.81534 88.1754 7.13494C87.9964 7.45028 87.9048 7.80185 87.9006 8.18963V9.79403C87.9006 10.2798 87.99 10.6996 88.169 11.0533C88.3523 11.407 88.6101 11.6797 88.9425 11.8714C89.2748 12.0632 89.669 12.1591 90.125 12.1591C90.4275 12.1591 90.7045 12.1165 90.956 12.0312C91.2074 11.946 91.4226 11.8182 91.6016 11.6477C91.7805 11.4773 91.9169 11.2685 92.0106 11.0213L94.5291 11.1875C94.4013 11.7926 94.1392 12.321 93.7429 12.7727C93.3508 13.2202 92.8437 13.5696 92.2216 13.821C91.6037 14.0682 90.8899 14.1918 90.0802 14.1918ZM99.0866 8.32386V14H96.3636V4.18182H98.9588V5.91406H99.0739C99.2912 5.34304 99.6555 4.89133 100.167 4.55895C100.678 4.2223 101.298 4.05398 102.027 4.05398C102.709 4.05398 103.303 4.20312 103.81 4.50142C104.317 4.79972 104.712 5.22585 104.993 5.77983C105.274 6.32955 105.415 6.9858 105.415 7.74858V14H102.692V8.23438C102.696 7.63352 102.543 7.16477 102.232 6.82812C101.92 6.48722 101.492 6.31676 100.947 6.31676C100.58 6.31676 100.256 6.3956 99.9751 6.55327C99.6981 6.71094 99.4808 6.94105 99.3231 7.24361C99.1697 7.5419 99.0909 7.90199 99.0866 8.32386ZM111.997 14.1918C110.991 14.1918 110.126 13.9787 109.402 13.5526C108.682 13.1222 108.128 12.5256 107.74 11.7628C107.356 11 107.165 10.1222 107.165 9.12926C107.165 8.12358 107.358 7.24148 107.746 6.48295C108.138 5.72017 108.694 5.12571 109.415 4.69957C110.135 4.26918 110.991 4.05398 111.984 4.05398C112.841 4.05398 113.591 4.20952 114.234 4.5206C114.878 4.83168 115.387 5.26847 115.762 5.83097C116.137 6.39347 116.344 7.05398 116.382 7.8125H113.812C113.74 7.32244 113.548 6.92827 113.237 6.62997C112.93 6.32741 112.528 6.17614 112.029 6.17614C111.607 6.17614 111.238 6.29119 110.923 6.52131C110.612 6.74716 110.369 7.07741 110.194 7.51207C110.02 7.94673 109.932 8.47301 109.932 9.09091C109.932 9.71733 110.018 10.25 110.188 10.6889C110.363 11.1278 110.608 11.4624 110.923 11.6925C111.238 11.9226 111.607 12.0376 112.029 12.0376C112.34 12.0376 112.619 11.9737 112.866 11.8459C113.118 11.718 113.324 11.5327 113.486 11.2898C113.653 11.0426 113.761 10.7464 113.812 10.4013H116.382C116.339 11.1513 116.135 11.8118 115.768 12.3828C115.406 12.9496 114.905 13.3928 114.266 13.7124C113.627 14.032 112.871 14.1918 111.997 14.1918ZM119.806 17.6818C119.461 17.6818 119.137 17.6541 118.835 17.5987C118.537 17.5476 118.289 17.4815 118.093 17.4006L118.707 15.3679C119.027 15.4659 119.314 15.5192 119.57 15.5277C119.83 15.5362 120.054 15.4766 120.241 15.3487C120.433 15.2209 120.588 15.0036 120.708 14.6967L120.868 14.2812L117.346 4.18182H120.209L122.242 11.392H122.344L124.396 4.18182H127.279L123.463 15.0611C123.279 15.5895 123.03 16.0497 122.715 16.4418C122.404 16.8381 122.01 17.1428 121.532 17.3558C121.055 17.5732 120.48 17.6818 119.806 17.6818Z" fill="#272D38"/>
</svg>
