<svg width="81" height="24" viewBox="0 0 81 24" fill="none" xmlns="http://www.w3.org/2000/svg">
<g clip-path="url(#clip0_23_600)">
<path d="M22.4438 7.09846H26.1848C28.5697 7.09846 30.5399 8.47838 30.5399 11.6291V12.2911C30.5399 15.4657 28.6973 16.8935 26.2566 16.8935H22.4438V7.09846ZM24.5337 8.87719V15.1068H26.1369C27.4929 15.1068 28.4022 14.2214 28.4022 12.2512V11.7327C28.4022 9.76257 27.445 8.87719 26.0651 8.87719H24.5337ZM31.6486 8.97291H33.3236L33.5948 10.8155C33.9139 9.56316 34.7275 8.89315 36.2031 8.89315H36.7216V11.0069H35.8601C34.1612 11.0069 33.7464 11.5971 33.7464 13.2722V16.9174H31.6805V8.97291H31.6486ZM37.1364 13.1047V12.8813C37.1364 10.2252 38.8353 8.7735 41.1485 8.7735C43.5095 8.7735 45.1606 10.2252 45.1606 12.8813V13.1047C45.1606 15.713 43.5574 17.1168 41.1485 17.1168C38.5881 17.0929 37.1364 15.7209 37.1364 13.1047ZM43.0469 13.0808V12.8813C43.0469 11.4057 42.3051 10.5203 41.1246 10.5203C39.968 10.5203 39.2023 11.3339 39.2023 12.8813V13.0808C39.2023 14.5085 39.9441 15.3221 41.1246 15.3221C42.3051 15.2982 43.0469 14.5085 43.0469 13.0808ZM46.2454 8.97291H47.9683L48.1677 10.4725C48.5825 9.46745 49.4679 8.7735 50.776 8.7735C52.794 8.7735 54.1261 10.2252 54.1261 12.9133V13.1366C54.1261 15.7449 52.6505 17.1248 50.776 17.1248C49.5237 17.1248 48.6623 16.5585 48.2395 15.6492V19.6613H46.2215L46.2454 8.97291ZM52.0283 13.0808V12.9053C52.0283 11.3259 51.2147 10.5443 50.1299 10.5443C48.9733 10.5443 48.2076 11.4296 48.2076 12.9053V13.0568C48.2076 14.4607 48.9494 15.3461 50.106 15.3461C51.2945 15.3221 52.0283 14.5644 52.0283 13.0808ZM57.181 15.4497L57.0056 16.9014H55.2348V6.31677H57.2528V10.3768C57.6995 9.33983 58.5849 8.7735 59.8372 8.7735C61.7356 8.79743 63.1394 10.1056 63.1394 12.7378V12.985C63.1394 15.6172 61.8074 17.1248 59.7893 17.1248C58.4573 17.0929 57.5958 16.4787 57.181 15.4497ZM61.0177 12.985V12.7856C61.0177 11.3339 60.228 10.5203 59.1193 10.5203C57.9867 10.5203 57.197 11.4296 57.197 12.8096V12.985C57.197 14.4607 57.9627 15.3221 59.0954 15.3221C60.3078 15.3221 61.0177 14.5644 61.0177 12.985ZM64.0248 13.1047V12.8813C64.0248 10.2252 65.7238 8.7735 68.0369 8.7735C70.3979 8.7735 72.049 10.2252 72.049 12.8813V13.1047C72.049 15.713 70.4219 17.1168 68.0369 17.1168C65.4765 17.0929 64.0248 15.7209 64.0248 13.1047ZM69.9513 13.0808V12.8813C69.9513 11.4057 69.2095 10.5203 68.029 10.5203C66.8724 10.5203 66.1066 11.3339 66.1066 12.8813V13.0808C66.1066 14.5085 66.8484 15.3221 68.029 15.3221C69.2174 15.2982 69.9513 14.5085 69.9513 13.0808ZM74.7531 12.7856L71.9693 8.97291H74.3542L75.9575 11.3579L77.5847 8.97291H79.9457L77.122 12.7617L80.0972 16.9014H77.7602L75.9415 14.2692L74.1708 16.9014H71.73L74.7531 12.7856Z" fill="#272D38"/>
<path d="M9.58593 7.09854L4.95962 10.0498L9.58593 13.0011L4.95962 15.9523L0.333313 12.9851L4.95962 10.0339L0.333313 7.09854L4.95962 4.14728L9.58593 7.09854ZM4.93569 16.9015L9.562 13.9503L14.1883 16.9015L9.562 19.8528L4.93569 16.9015ZM9.58593 12.9851L14.2122 10.0339L9.58593 7.09854L14.1883 4.14728L18.8146 7.09854L14.1883 10.0498L18.8146 13.0011L14.1883 15.9523L9.58593 12.9851Z" fill="#272D38"/>
</g>
<defs>
<clipPath id="clip0_23_600">
<rect width="80" height="23.5583" fill="white" transform="translate(0.333313 0.220886)"/>
</clipPath>
</defs>
</svg>
