<svg width="61" height="24" viewBox="0 0 61 24" fill="none" xmlns="http://www.w3.org/2000/svg">
<g clip-path="url(#clip0_23_599)">
<path d="M19.4725 16.1784L20.2005 14.4768C20.9976 15.0671 22.0372 15.3796 23.0771 15.3796C23.8397 15.3796 24.3248 15.0845 24.3248 14.6332C24.3074 13.383 19.7325 14.3553 19.6977 11.2122C19.6803 9.61478 21.1014 8.38199 23.1119 8.38199C24.3074 8.38199 25.5035 8.67727 26.3525 9.35455L25.6722 11.0924C24.891 10.5901 23.9262 10.2399 23.0078 10.2399C22.3839 10.2399 21.9679 10.5349 21.9679 10.9172C21.9853 12.15 26.5953 11.4727 26.6473 14.4768C26.6473 16.109 25.2606 17.2551 23.2849 17.2551C21.8294 17.2551 20.495 16.9079 19.4722 16.1784H19.4725ZM48.4599 13.8607C48.2762 14.1872 48.0089 14.4589 47.6854 14.6481C47.362 14.8372 46.9941 14.9369 46.6194 14.9369C45.4518 14.9369 44.5053 13.9885 44.5053 12.8185C44.5053 11.6486 45.4518 10.7002 46.6194 10.7002C46.9941 10.7002 47.362 10.7999 47.6854 10.989C48.0089 11.1781 48.2762 11.4499 48.4599 11.7764L50.4838 10.653C49.7258 9.29813 48.2797 8.38199 46.6194 8.38199C44.174 8.38199 42.1916 10.3681 42.1916 12.8185C42.1916 15.2687 44.174 17.2551 46.6194 17.2551C48.2797 17.2551 49.7258 16.339 50.4838 14.9841L48.4599 13.8607ZM27.9606 17.0814H30.4908V4.68884H27.9608L27.9606 17.0814ZM51.7616 4.68884V17.0814H54.2918V13.3686L57.29 17.0814H60.5241L56.7114 12.6707L60.2467 8.55498H57.1513L54.2918 11.9767V4.68884H51.7616ZM38.2859 8.55548V9.56284C37.8701 8.86815 36.8476 8.38199 35.7731 8.38199C33.5549 8.38199 31.8046 10.3443 31.8046 12.8098C31.8046 15.2754 33.5549 17.2551 35.7731 17.2551C36.8476 17.2551 37.8701 16.7689 38.2859 16.0743V17.0814H40.8161V8.55548H38.2859ZM38.2859 13.8778C37.9221 14.4855 37.1595 14.9367 36.3105 14.9367C35.1426 14.9367 34.1961 13.9885 34.1961 12.8185C34.1961 11.6486 35.1426 10.7002 36.3105 10.7002C37.1595 10.7002 37.9221 11.1689 38.2859 11.7938V13.8778Z" fill="#272D38"/>
<path d="M6.11047 4.41504C5.29052 4.41504 4.6259 5.08114 4.6259 5.90259C4.62571 6.09774 4.66395 6.29102 4.73845 6.47139C4.81295 6.65176 4.92225 6.8157 5.0601 6.95383C5.19796 7.09196 5.36167 7.20159 5.54189 7.27645C5.72212 7.35131 5.91532 7.38994 6.11047 7.39014H7.59529V5.90259C7.59561 5.50844 7.43937 5.1303 7.16092 4.85133C6.88247 4.57237 6.50462 4.41543 6.11047 4.41504ZM6.11047 8.38184H2.15138C1.33142 8.38184 0.666809 9.04794 0.666809 9.86964C0.666809 10.6911 1.33142 11.3572 2.15138 11.3572H6.11072C6.93042 11.3572 7.59529 10.6911 7.59529 9.86964C7.59529 9.04794 6.93042 8.38184 6.11047 8.38184Z" fill="#272D38"/>
<path d="M15.5135 9.86964C15.5135 9.04794 14.8486 8.38184 14.0287 8.38184C13.2087 8.38184 12.5441 9.04794 12.5441 9.86964V11.3572H14.0287C14.4228 11.3568 14.8007 11.1999 15.0791 10.9209C15.3576 10.6419 15.5138 10.2638 15.5135 9.86964ZM11.5544 9.86964V5.90259C11.5547 5.50844 11.3985 5.1303 11.12 4.85133C10.8416 4.57237 10.4637 4.41543 10.0696 4.41504C9.24964 4.41504 8.58502 5.08114 8.58502 5.90259V9.86939C8.58502 10.6913 9.24964 11.3574 10.0696 11.3574C10.4637 11.357 10.8416 11.2001 11.12 10.9211C11.3985 10.6422 11.5547 10.264 11.5544 9.86988" fill="#272D38"/>
<path d="M10.0697 19.291C10.4638 19.2906 10.8417 19.1337 11.1201 18.8547C11.3986 18.5758 11.5548 18.1976 11.5545 17.8035C11.5548 17.4093 11.3986 17.0312 11.1201 16.7522C10.8417 16.4733 10.4638 16.3163 10.0697 16.3159H8.58508V17.8035C8.58508 18.6249 9.2497 19.291 10.0697 19.291ZM10.0697 15.3242H14.029C14.8487 15.3242 15.5136 14.6581 15.5136 13.8364C15.5139 13.4423 15.3576 13.0641 15.0792 12.7852C14.8007 12.5062 14.4229 12.3493 14.0287 12.3489H10.0697C9.2497 12.3489 8.58508 13.015 8.58508 13.8364C8.58489 14.0316 8.62313 14.2249 8.69763 14.4052C8.77213 14.5856 8.88143 14.7495 9.01929 14.8877C9.15714 15.0258 9.32085 15.1354 9.50107 15.2103C9.6813 15.2851 9.8745 15.3238 10.0697 15.324" fill="#272D38"/>
<path d="M0.666688 13.8364C0.666492 14.0316 0.704736 14.2249 0.779236 14.4052C0.853737 14.5856 0.963035 14.7495 1.10089 14.8877C1.23874 15.0258 1.40246 15.1354 1.58268 15.2103C1.7629 15.2851 1.9561 15.3238 2.15125 15.324C2.5454 15.3236 2.92326 15.1666 3.20171 14.8877C3.48016 14.6087 3.6364 14.2306 3.63607 13.8364V12.3489H2.15125C1.3313 12.3489 0.666688 13.015 0.666688 13.8364ZM4.62578 13.8364V17.8032C4.62578 18.6249 5.29039 19.291 6.11035 19.291C6.5045 19.2906 6.88235 19.1337 7.1608 18.8547C7.43925 18.5758 7.59549 18.1976 7.59516 17.8035V13.8364C7.59536 13.6413 7.55711 13.448 7.48259 13.2676C7.40808 13.0872 7.29876 12.9232 7.16087 12.7851C7.02299 12.647 6.85925 12.5373 6.679 12.4625C6.49875 12.3876 6.30552 12.349 6.11035 12.3489C5.29039 12.3489 4.62578 13.015 4.62578 13.8364Z" fill="#272D38"/>
</g>
<defs>
<clipPath id="clip0_23_599">
<rect width="60" height="23.8017" fill="white" transform="translate(0.666687 0.0991821)"/>
</clipPath>
</defs>
</svg>
