<svg width="70" height="24" viewBox="0 0 70 24" fill="none" xmlns="http://www.w3.org/2000/svg">
<g clip-path="url(#clip0_23_598)">
<path d="M10.5363 1.53955C4.73735 1.53955 0.0361328 6.24064 0.0361328 12.0396C0.0361328 17.8388 4.73735 22.5396 10.5363 22.5396C16.3359 22.5396 21.0366 17.8388 21.0366 12.0396C21.0366 6.24102 16.3359 1.54005 10.5362 1.54005L10.5363 1.53955ZM15.3516 16.6837C15.1636 16.9921 14.7598 17.0899 14.4514 16.9006C11.986 15.3947 8.88248 15.0536 5.22749 15.8887C4.87528 15.969 4.5242 15.7483 4.44395 15.3959C4.36333 15.0436 4.58313 14.6925 4.93621 14.6123C8.93602 13.6985 12.367 14.0919 15.1347 15.7834C15.4432 15.9727 15.541 16.3752 15.3516 16.6837ZM16.6369 13.8246C16.3999 14.2098 15.8958 14.3314 15.5109 14.0944C12.6884 12.3596 8.38608 11.8572 5.04768 12.8705C4.61473 13.0013 4.15744 12.7573 4.02604 12.3251C3.89564 11.8922 4.13976 11.4358 4.57197 11.3041C8.38533 10.147 13.126 10.7075 16.3673 12.6993C16.7522 12.9362 16.8738 13.4403 16.6369 13.8247V13.8246ZM16.7472 10.8474C13.363 8.83738 7.77959 8.65257 4.54852 9.63321C4.02967 9.79057 3.48099 9.49767 3.32375 8.97882C3.16652 8.45972 3.45917 7.91141 3.97839 7.75367C7.68743 6.62771 13.8533 6.84525 17.7495 9.15825C18.2172 9.43522 18.3702 10.038 18.0931 10.504C17.8172 10.9707 17.2129 11.1245 16.7477 10.8474H16.7472ZM28.6037 11.2326C26.7906 10.8003 26.4684 10.4969 26.4684 9.85928C26.4684 9.25693 27.0351 8.85155 27.879 8.85155C28.6965 8.85155 29.5065 9.15937 30.3566 9.79307C30.3817 9.81226 30.4143 9.81991 30.4456 9.81489C30.4782 9.81013 30.5058 9.7927 30.5246 9.76649L31.4098 8.51865C31.4462 8.46725 31.4361 8.3964 31.3872 8.35716C30.3754 7.54553 29.2369 7.15094 27.9053 7.15094C25.948 7.15094 24.58 8.32568 24.58 10.0065C24.58 11.8089 25.7599 12.4471 27.7987 12.9398C29.5328 13.3394 29.8262 13.6741 29.8262 14.2725C29.8262 14.9358 29.2344 15.3483 28.2814 15.3483C27.2232 15.3483 26.3593 14.9909 25.3938 14.1559C25.37 14.1346 25.3374 14.1258 25.3073 14.127C25.2747 14.1295 25.2458 14.1446 25.2258 14.1684L24.2327 15.3496C24.1914 15.3997 24.1964 15.4724 24.244 15.5151C25.3675 16.5181 26.7492 17.0473 28.2413 17.0473C30.3503 17.0473 31.7133 15.895 31.7133 14.1107C31.717 12.6052 30.8155 11.7714 28.6074 11.2343L28.6037 11.2326ZM36.4854 9.44463C35.5714 9.44463 34.8216 9.80474 34.2022 10.5426V9.71208C34.2022 9.6465 34.1495 9.59309 34.0843 9.59309H32.4606C32.3954 9.59309 32.3427 9.6465 32.3427 9.71208V18.9406C32.3427 19.0058 32.3954 19.0597 32.4606 19.0597H34.0843C34.1495 19.0597 34.2022 19.0058 34.2022 18.9406V16.0279C34.8216 16.7213 35.5714 17.0611 36.4854 17.0611C38.1844 17.0611 39.9047 15.7533 39.9047 13.2532C39.9072 10.7527 38.1869 9.4445 36.4867 9.4445L36.4854 9.44463ZM38.0164 13.2532C38.0164 14.5258 37.2327 15.4148 36.1093 15.4148C34.9996 15.4148 34.162 14.4856 34.162 13.2532C34.162 12.0207 34.9996 11.0918 36.1093 11.0918C37.2139 11.0917 38.0164 12.0005 38.0164 13.2531V13.2532ZM44.312 9.44463C42.124 9.44463 40.41 11.1293 40.41 13.2804C40.41 15.4085 42.1128 17.0749 44.2857 17.0749C46.4812 17.0749 48.2002 15.3959 48.2002 13.2532C48.2002 11.1178 46.4925 9.44488 44.312 9.44488V9.44463ZM44.312 15.4273C43.1484 15.4273 42.2707 14.4919 42.2707 13.2526C42.2707 12.0076 43.1184 11.1042 44.2857 11.1042C45.4568 11.1042 46.3395 12.0392 46.3395 13.2798C46.3395 14.5245 45.4869 15.4273 44.312 15.4273ZM52.8721 9.59309H51.0854V7.76671C51.0854 7.70126 51.0327 7.64785 50.9675 7.64785H49.3438C49.2786 7.64785 49.2246 7.70126 49.2246 7.76671V9.59309H48.4447C48.3795 9.59309 48.3269 9.6465 48.3269 9.71208V11.1072C48.3269 11.1727 48.3795 11.2262 48.4447 11.2262H49.2246V14.8367C49.2246 16.295 49.9506 17.0347 51.3838 17.0347C51.9656 17.0347 52.4483 16.9144 52.9035 16.6561C52.9411 16.636 52.9637 16.5959 52.9637 16.5533V15.2242C52.9637 15.184 52.9423 15.1452 52.9072 15.1239C52.8721 15.1013 52.8282 15.1 52.7919 15.1188C52.4797 15.2756 52.1775 15.3483 51.8389 15.3483C51.3186 15.3483 51.0854 15.1113 51.0854 14.5822V11.2269H52.8721C52.9373 11.2269 52.99 11.1734 52.99 11.1079V9.71283C52.9925 9.64725 52.9398 9.59384 52.8734 9.59384L52.8721 9.59309ZM59.0963 9.60023V9.37592C59.0963 8.71601 59.3496 8.42173 59.9163 8.42173C60.2548 8.42173 60.5269 8.48894 60.8316 8.5905C60.8692 8.60229 60.9081 8.59639 60.9382 8.57395C60.9695 8.5515 60.9871 8.51552 60.9871 8.4774V7.10944C60.9871 7.05716 60.9545 7.01089 60.9031 6.99547C60.5821 6.8998 60.1708 6.80162 59.5539 6.80162C58.0556 6.80162 57.2619 7.64597 57.2619 9.24251V9.58606H56.482C56.4168 9.58606 56.3629 9.63948 56.3629 9.70493V11.1072C56.3629 11.1727 56.4168 11.2262 56.482 11.2262H57.2619V16.794C57.2619 16.8604 57.3158 16.9131 57.381 16.9131H59.0035C59.07 16.9131 59.1226 16.8604 59.1226 16.794V11.2266H60.6385L62.9607 16.794C62.6974 17.3783 62.4378 17.4949 62.0842 17.4949C61.7983 17.4949 61.4962 17.4096 61.189 17.2404C61.1601 17.2253 61.125 17.2228 61.0949 17.2316C61.0636 17.2429 61.0373 17.2654 61.0247 17.2955L60.4743 18.503C60.4479 18.5607 60.4705 18.6271 60.5257 18.6572C61.0999 18.9682 61.6178 19.1011 62.2585 19.1011C63.4572 19.1011 64.1205 18.5419 64.7035 17.0398L67.5197 9.76273C67.5348 9.72612 67.5297 9.68474 67.5072 9.65227C67.4859 9.62004 67.4495 9.60061 67.4106 9.60061H65.7204C65.669 9.60061 65.6239 9.63283 65.6076 9.68035L63.876 14.6248L61.9802 9.67709C61.9626 9.63108 61.9187 9.60061 61.8698 9.60061H59.0963V9.60023ZM55.4877 9.59309H53.8639C53.7987 9.59309 53.7448 9.6465 53.7448 9.71208V16.794C53.7448 16.8604 53.7987 16.9131 53.8639 16.9131H55.4877C55.5529 16.9131 55.6068 16.8604 55.6068 16.794V9.71258C55.6068 9.647 55.5541 9.59359 55.4877 9.59359V9.59309ZM54.6852 6.36829C54.042 6.36829 53.5204 6.88889 53.5204 7.53199C53.5204 8.17547 54.042 8.6967 54.6852 8.6967C55.3284 8.6967 55.8488 8.17547 55.8488 7.53199C55.8488 6.88901 55.3272 6.36829 54.6852 6.36829ZM68.9065 11.8702C68.2645 11.8702 67.7642 11.3543 67.7642 10.7277C67.7642 10.1011 68.2708 9.57929 68.9128 9.57929C69.5547 9.57929 70.055 10.0951 70.055 10.7212C70.055 11.3477 69.5485 11.8702 68.9065 11.8702ZM68.9128 9.69289C68.3272 9.69289 67.8846 10.1581 67.8846 10.7277C67.8846 11.2971 68.3247 11.756 68.9065 11.756C69.492 11.756 69.9346 11.2912 69.9346 10.7212C69.9346 10.1518 69.4945 9.69289 68.9128 9.69289ZM69.166 10.8387L69.4895 11.2911H69.2162L68.9253 10.876H68.6758V11.2911H68.4476V10.0919H68.9817C69.2613 10.0919 69.4444 10.2344 69.4444 10.4744C69.4456 10.671 69.3315 10.7911 69.1673 10.8387H69.166ZM68.9729 10.2976H68.6758V10.6769H68.9729C69.1209 10.6769 69.2099 10.6043 69.2099 10.4871C69.2099 10.3637 69.1209 10.2976 68.9729 10.2976Z" fill="#272D38"/>
</g>
<defs>
<clipPath id="clip0_23_598">
<rect width="70" height="24" fill="white"/>
</clipPath>
</defs>
</svg>
